<mxfile host="Electron" modified="2023-09-07T04:38:46.327Z" agent="Mozilla/5.0 (Macintosh; Intel Mac OS X 10_15_7) AppleWebKit/537.36 (KHTML, like Gecko) draw.io/21.6.8 Chrome/114.0.5735.289 Electron/25.5.0 Safari/537.36" etag="Wp2viJaN2ukHUy0LBbKN" version="21.6.8" type="device">
  <diagram name="Page-1" id="QEnZ50NGrZXmXA_T2Dn9">
    <mxGraphModel dx="1311" dy="887" grid="1" gridSize="10" guides="1" tooltips="1" connect="1" arrows="1" fold="1" page="1" pageScale="1" pageWidth="850" pageHeight="1100" math="0" shadow="0">
      <root>
        <mxCell id="0" />
        <mxCell id="1" parent="0" />
        <mxCell id="fjrpFu26XK2dvU8WxlA9-69" value="Serviços Azure" style="verticalAlign=top;align=left;spacingTop=8;spacingLeft=2;spacingRight=12;shape=cube;size=10;direction=south;fontStyle=4;html=1;whiteSpace=wrap;" vertex="1" parent="1">
          <mxGeometry x="310" y="150" width="510" height="560" as="geometry" />
        </mxCell>
        <mxCell id="fjrpFu26XK2dvU8WxlA9-70" value="Browser" style="verticalAlign=top;align=left;spacingTop=8;spacingLeft=2;spacingRight=12;shape=cube;size=10;direction=south;fontStyle=4;html=1;whiteSpace=wrap;" vertex="1" parent="1">
          <mxGeometry x="45" y="220" width="190" height="120" as="geometry" />
        </mxCell>
        <mxCell id="fjrpFu26XK2dvU8WxlA9-3" value="«Cliente»&lt;br&gt;&lt;b&gt;Front End SGQ&lt;/b&gt;" style="html=1;dropTarget=0;whiteSpace=wrap;" vertex="1" parent="1">
          <mxGeometry x="70" y="260" width="140" height="60" as="geometry" />
        </mxCell>
        <mxCell id="fjrpFu26XK2dvU8WxlA9-4" value="" style="shape=module;jettyWidth=8;jettyHeight=4;" vertex="1" parent="fjrpFu26XK2dvU8WxlA9-3">
          <mxGeometry x="1" width="20" height="20" relative="1" as="geometry">
            <mxPoint x="-27" y="7" as="offset" />
          </mxGeometry>
        </mxCell>
        <mxCell id="fjrpFu26XK2dvU8WxlA9-71" style="edgeStyle=orthogonalEdgeStyle;rounded=0;orthogonalLoop=1;jettySize=auto;html=1;exitX=1;exitY=0.5;exitDx=0;exitDy=0;" edge="1" parent="1" source="fjrpFu26XK2dvU8WxlA9-3" target="fjrpFu26XK2dvU8WxlA9-7">
          <mxGeometry relative="1" as="geometry" />
        </mxCell>
        <mxCell id="fjrpFu26XK2dvU8WxlA9-72" value="HTTP" style="edgeLabel;html=1;align=center;verticalAlign=middle;resizable=0;points=[];" vertex="1" connectable="0" parent="fjrpFu26XK2dvU8WxlA9-71">
          <mxGeometry x="-0.0167" y="1" relative="1" as="geometry">
            <mxPoint as="offset" />
          </mxGeometry>
        </mxCell>
        <mxCell id="fjrpFu26XK2dvU8WxlA9-73" style="edgeStyle=orthogonalEdgeStyle;rounded=0;orthogonalLoop=1;jettySize=auto;html=1;entryX=0.5;entryY=0;entryDx=0;entryDy=0;" edge="1" parent="1" source="fjrpFu26XK2dvU8WxlA9-7" target="fjrpFu26XK2dvU8WxlA9-15">
          <mxGeometry relative="1" as="geometry" />
        </mxCell>
        <mxCell id="fjrpFu26XK2dvU8WxlA9-74" value="HTTP" style="edgeLabel;html=1;align=center;verticalAlign=middle;resizable=0;points=[];" vertex="1" connectable="0" parent="fjrpFu26XK2dvU8WxlA9-73">
          <mxGeometry x="-0.1745" y="1" relative="1" as="geometry">
            <mxPoint as="offset" />
          </mxGeometry>
        </mxCell>
        <mxCell id="fjrpFu26XK2dvU8WxlA9-7" value="«Serverless»&lt;br&gt;&lt;b&gt;Serviço de Auth&lt;/b&gt;" style="html=1;dropTarget=0;whiteSpace=wrap;" vertex="1" parent="1">
          <mxGeometry x="330" y="260" width="140" height="60" as="geometry" />
        </mxCell>
        <mxCell id="fjrpFu26XK2dvU8WxlA9-8" value="" style="shape=module;jettyWidth=8;jettyHeight=4;" vertex="1" parent="fjrpFu26XK2dvU8WxlA9-7">
          <mxGeometry x="1" width="20" height="20" relative="1" as="geometry">
            <mxPoint x="-27" y="7" as="offset" />
          </mxGeometry>
        </mxCell>
        <mxCell id="fjrpFu26XK2dvU8WxlA9-9" value="«BD»&lt;br&gt;&lt;b&gt;Azure CosmosDB&lt;/b&gt;" style="html=1;dropTarget=0;whiteSpace=wrap;" vertex="1" parent="1">
          <mxGeometry x="330" y="500" width="140" height="60" as="geometry" />
        </mxCell>
        <mxCell id="fjrpFu26XK2dvU8WxlA9-10" value="" style="shape=module;jettyWidth=8;jettyHeight=4;" vertex="1" parent="fjrpFu26XK2dvU8WxlA9-9">
          <mxGeometry x="1" width="20" height="20" relative="1" as="geometry">
            <mxPoint x="-27" y="7" as="offset" />
          </mxGeometry>
        </mxCell>
        <mxCell id="fjrpFu26XK2dvU8WxlA9-80" style="edgeStyle=orthogonalEdgeStyle;rounded=0;orthogonalLoop=1;jettySize=auto;html=1;entryX=0.5;entryY=0;entryDx=0;entryDy=0;" edge="1" parent="1" source="fjrpFu26XK2dvU8WxlA9-11" target="fjrpFu26XK2dvU8WxlA9-13">
          <mxGeometry relative="1" as="geometry" />
        </mxCell>
        <mxCell id="fjrpFu26XK2dvU8WxlA9-81" value="AMQP" style="edgeLabel;html=1;align=center;verticalAlign=middle;resizable=0;points=[];" vertex="1" connectable="0" parent="fjrpFu26XK2dvU8WxlA9-80">
          <mxGeometry x="-0.0176" relative="1" as="geometry">
            <mxPoint as="offset" />
          </mxGeometry>
        </mxCell>
        <mxCell id="fjrpFu26XK2dvU8WxlA9-82" style="edgeStyle=orthogonalEdgeStyle;rounded=0;orthogonalLoop=1;jettySize=auto;html=1;entryX=1;entryY=0.5;entryDx=0;entryDy=0;" edge="1" parent="1" source="fjrpFu26XK2dvU8WxlA9-11" target="fjrpFu26XK2dvU8WxlA9-17">
          <mxGeometry relative="1" as="geometry">
            <Array as="points">
              <mxPoint x="750" y="290" />
              <mxPoint x="750" y="530" />
            </Array>
          </mxGeometry>
        </mxCell>
        <mxCell id="fjrpFu26XK2dvU8WxlA9-83" value="AMQP" style="edgeLabel;html=1;align=center;verticalAlign=middle;resizable=0;points=[];" vertex="1" connectable="0" parent="fjrpFu26XK2dvU8WxlA9-82">
          <mxGeometry x="0.0462" relative="1" as="geometry">
            <mxPoint y="-1" as="offset" />
          </mxGeometry>
        </mxCell>
        <mxCell id="fjrpFu26XK2dvU8WxlA9-11" value="«Mensageria»&lt;br&gt;&lt;b&gt;Azure Service Bus&lt;/b&gt;" style="html=1;dropTarget=0;whiteSpace=wrap;" vertex="1" parent="1">
          <mxGeometry x="590" y="260" width="140" height="60" as="geometry" />
        </mxCell>
        <mxCell id="fjrpFu26XK2dvU8WxlA9-12" value="" style="shape=module;jettyWidth=8;jettyHeight=4;" vertex="1" parent="fjrpFu26XK2dvU8WxlA9-11">
          <mxGeometry x="1" width="20" height="20" relative="1" as="geometry">
            <mxPoint x="-27" y="7" as="offset" />
          </mxGeometry>
        </mxCell>
        <mxCell id="fjrpFu26XK2dvU8WxlA9-86" style="edgeStyle=orthogonalEdgeStyle;rounded=0;orthogonalLoop=1;jettySize=auto;html=1;entryX=1;entryY=0.5;entryDx=0;entryDy=0;" edge="1" parent="1" source="fjrpFu26XK2dvU8WxlA9-13" target="fjrpFu26XK2dvU8WxlA9-21">
          <mxGeometry relative="1" as="geometry">
            <Array as="points">
              <mxPoint x="560" y="410" />
              <mxPoint x="560" y="660" />
            </Array>
          </mxGeometry>
        </mxCell>
        <mxCell id="fjrpFu26XK2dvU8WxlA9-87" value="TCP" style="edgeLabel;html=1;align=center;verticalAlign=middle;resizable=0;points=[];" vertex="1" connectable="0" parent="fjrpFu26XK2dvU8WxlA9-86">
          <mxGeometry x="-0.1609" y="2" relative="1" as="geometry">
            <mxPoint as="offset" />
          </mxGeometry>
        </mxCell>
        <mxCell id="fjrpFu26XK2dvU8WxlA9-13" value="«Serverless»&lt;br&gt;&lt;b&gt;Serviço de BI&lt;/b&gt;" style="html=1;dropTarget=0;whiteSpace=wrap;" vertex="1" parent="1">
          <mxGeometry x="590" y="380" width="140" height="60" as="geometry" />
        </mxCell>
        <mxCell id="fjrpFu26XK2dvU8WxlA9-14" value="" style="shape=module;jettyWidth=8;jettyHeight=4;" vertex="1" parent="fjrpFu26XK2dvU8WxlA9-13">
          <mxGeometry x="1" width="20" height="20" relative="1" as="geometry">
            <mxPoint x="-27" y="7" as="offset" />
          </mxGeometry>
        </mxCell>
        <mxCell id="fjrpFu26XK2dvU8WxlA9-76" style="edgeStyle=orthogonalEdgeStyle;rounded=0;orthogonalLoop=1;jettySize=auto;html=1;entryX=0.5;entryY=0;entryDx=0;entryDy=0;" edge="1" parent="1" source="fjrpFu26XK2dvU8WxlA9-15" target="fjrpFu26XK2dvU8WxlA9-9">
          <mxGeometry relative="1" as="geometry" />
        </mxCell>
        <mxCell id="fjrpFu26XK2dvU8WxlA9-75" style="edgeStyle=orthogonalEdgeStyle;rounded=0;orthogonalLoop=1;jettySize=auto;html=1;entryX=0.5;entryY=0;entryDx=0;entryDy=0;" edge="1" parent="1" source="fjrpFu26XK2dvU8WxlA9-15" target="fjrpFu26XK2dvU8WxlA9-9">
          <mxGeometry relative="1" as="geometry" />
        </mxCell>
        <mxCell id="fjrpFu26XK2dvU8WxlA9-77" value="TCP" style="edgeLabel;html=1;align=center;verticalAlign=middle;resizable=0;points=[];" vertex="1" connectable="0" parent="fjrpFu26XK2dvU8WxlA9-75">
          <mxGeometry x="0.0608" relative="1" as="geometry">
            <mxPoint as="offset" />
          </mxGeometry>
        </mxCell>
        <mxCell id="fjrpFu26XK2dvU8WxlA9-78" style="edgeStyle=orthogonalEdgeStyle;rounded=0;orthogonalLoop=1;jettySize=auto;html=1;entryX=0;entryY=0.5;entryDx=0;entryDy=0;" edge="1" parent="1" source="fjrpFu26XK2dvU8WxlA9-15" target="fjrpFu26XK2dvU8WxlA9-11">
          <mxGeometry relative="1" as="geometry" />
        </mxCell>
        <mxCell id="fjrpFu26XK2dvU8WxlA9-79" value="AMQP" style="edgeLabel;html=1;align=center;verticalAlign=middle;resizable=0;points=[];" vertex="1" connectable="0" parent="fjrpFu26XK2dvU8WxlA9-78">
          <mxGeometry x="-0.1809" y="-2" relative="1" as="geometry">
            <mxPoint y="1" as="offset" />
          </mxGeometry>
        </mxCell>
        <mxCell id="fjrpFu26XK2dvU8WxlA9-15" value="«Serverless»&lt;br&gt;&lt;b&gt;Azure Functions&lt;/b&gt;" style="html=1;dropTarget=0;whiteSpace=wrap;" vertex="1" parent="1">
          <mxGeometry x="330" y="380" width="140" height="60" as="geometry" />
        </mxCell>
        <mxCell id="fjrpFu26XK2dvU8WxlA9-16" value="" style="shape=module;jettyWidth=8;jettyHeight=4;" vertex="1" parent="fjrpFu26XK2dvU8WxlA9-15">
          <mxGeometry x="1" width="20" height="20" relative="1" as="geometry">
            <mxPoint x="-27" y="7" as="offset" />
          </mxGeometry>
        </mxCell>
        <mxCell id="fjrpFu26XK2dvU8WxlA9-84" style="edgeStyle=orthogonalEdgeStyle;rounded=0;orthogonalLoop=1;jettySize=auto;html=1;" edge="1" parent="1" source="fjrpFu26XK2dvU8WxlA9-17" target="fjrpFu26XK2dvU8WxlA9-19">
          <mxGeometry relative="1" as="geometry" />
        </mxCell>
        <mxCell id="fjrpFu26XK2dvU8WxlA9-85" value="TCP" style="edgeLabel;html=1;align=center;verticalAlign=middle;resizable=0;points=[];" vertex="1" connectable="0" parent="fjrpFu26XK2dvU8WxlA9-84">
          <mxGeometry x="0.1109" y="1" relative="1" as="geometry">
            <mxPoint as="offset" />
          </mxGeometry>
        </mxCell>
        <mxCell id="fjrpFu26XK2dvU8WxlA9-17" value="«Serverless»&lt;br&gt;&lt;b&gt;Serviço de Notificação&lt;/b&gt;" style="html=1;dropTarget=0;whiteSpace=wrap;" vertex="1" parent="1">
          <mxGeometry x="590" y="500" width="140" height="60" as="geometry" />
        </mxCell>
        <mxCell id="fjrpFu26XK2dvU8WxlA9-18" value="" style="shape=module;jettyWidth=8;jettyHeight=4;" vertex="1" parent="fjrpFu26XK2dvU8WxlA9-17">
          <mxGeometry x="1" width="20" height="20" relative="1" as="geometry">
            <mxPoint x="-27" y="7" as="offset" />
          </mxGeometry>
        </mxCell>
        <mxCell id="fjrpFu26XK2dvU8WxlA9-19" value="«Notificações»&lt;br&gt;&lt;b&gt;Azure Notification Hub&lt;/b&gt;" style="html=1;dropTarget=0;whiteSpace=wrap;" vertex="1" parent="1">
          <mxGeometry x="590" y="630" width="140" height="60" as="geometry" />
        </mxCell>
        <mxCell id="fjrpFu26XK2dvU8WxlA9-20" value="" style="shape=module;jettyWidth=8;jettyHeight=4;" vertex="1" parent="fjrpFu26XK2dvU8WxlA9-19">
          <mxGeometry x="1" width="20" height="20" relative="1" as="geometry">
            <mxPoint x="-27" y="7" as="offset" />
          </mxGeometry>
        </mxCell>
        <mxCell id="fjrpFu26XK2dvU8WxlA9-21" value="«BD»&lt;br&gt;&lt;b&gt;Azure Data Warehouse&lt;/b&gt;" style="html=1;dropTarget=0;whiteSpace=wrap;" vertex="1" parent="1">
          <mxGeometry x="330" y="630" width="140" height="60" as="geometry" />
        </mxCell>
        <mxCell id="fjrpFu26XK2dvU8WxlA9-22" value="" style="shape=module;jettyWidth=8;jettyHeight=4;" vertex="1" parent="fjrpFu26XK2dvU8WxlA9-21">
          <mxGeometry x="1" width="20" height="20" relative="1" as="geometry">
            <mxPoint x="-27" y="7" as="offset" />
          </mxGeometry>
        </mxCell>
      </root>
    </mxGraphModel>
  </diagram>
</mxfile>
